<svg xmlns="http://www.w3.org/2000/svg" width="138" height="30" viewBox="0 0 138 30">
  <g fill="none" fill-rule="evenodd">
    <g fill-rule="nonzero" transform="translate(30 3)">
      <path fill="#F60" d="M107.285806,21.2369787 L107.285806,23.9850255 L97.7539051,23.9850255 L97.7539051,21.2369787 L101.024087,21.2369787 L101.024087,1.30371093 L104.015624,1.30371093 L104.015624,21.2369787 L107.285806,21.2369787 Z M97.5491525,5.89583321 L97.5491525,8.4700519 L94.5569651,8.4700519 L94.5569651,6.06966133 C94.5569651,5.26953114 94.4124338,4.68391918 94.1223948,4.30110669 C93.8323557,3.92447909 93.4091786,3.73307285 92.852538,3.73893222 C92.2962229,3.73307285 91.8610016,3.92447909 91.5657542,4.30110669 C91.2639964,4.68391918 91.1129547,5.26953114 91.1129547,6.06966133 L91.1129547,19.2190751 C91.1129547,20.0195308 91.2639964,20.6051427 91.5657542,20.9876297 C91.8610016,21.3645828 92.2962229,21.5556635 92.852538,21.5501297 C93.4091786,21.5556635 93.8323557,21.3645828 94.1223948,20.9876297 C94.4124338,20.6051427 94.5569651,20.0195308 94.5569651,19.2190751 L94.5569651,16.81901 L97.5491525,16.81901 L97.5491525,19.3929032 C97.5374337,20.952799 97.1318348,22.1471349 96.3255197,22.9879552 C95.5139963,23.82845 94.360025,24.2519525 92.852538,24.2633458 C91.8554677,24.2633458 91.0029287,24.0719395 90.2958975,23.6894526 C89.5940746,23.3066401 89.0550121,22.7561844 88.6839183,22.0312495 C88.3128246,21.3063146 88.1276032,20.4309891 88.1217439,19.3929032 L88.1217439,5.89583321 C88.1276032,4.86360667 88.3128246,3.9824218 88.6839183,3.25748692 C89.0550121,2.53287757 89.5940746,1.98209633 90.2958975,1.59928384 C91.0029287,1.22233072 91.8554677,1.03125 92.852538,1.02539062 C94.360025,1.03710937 95.5139963,1.46028645 96.3255197,2.30110674 C97.1318348,3.14160151 97.5374337,4.33593742 97.5491525,5.89583321 Z M86.9352205,23.9850255 L83.9436841,23.9850255 L83.9436841,1.30371093 L86.9352205,1.30371093 L86.9352205,23.9850255 Z M79.901692,6.31315091 C79.901692,5.59407541 79.7506503,5.02604157 79.449218,4.61425772 C79.1481113,4.20247388 78.6839186,3.98795566 78.057942,3.9824218 L76.1445306,3.9824218 L76.1445306,21.2369787 L78.057942,21.2369787 C78.6839186,21.2311193 79.1481113,21.0224604 79.449218,20.6051427 C79.7506503,20.1933589 79.901692,19.6308589 79.901692,18.9062496 L79.901692,6.31315091 Z M82.8932284,6.24348945 L82.8932284,19.0455725 C82.8990877,20.0481766 82.7366529,20.9182938 82.4062492,21.6546219 C82.0758456,22.3964838 81.5540357,22.9648432 80.8408196,23.3707677 C80.1276034,23.7763666 79.2001946,23.9794916 78.057942,23.9850255 L73.1529942,23.9850255 L73.1529942,1.30371093 L78.057942,1.30371093 C79.2001946,1.30957031 80.1276034,1.5126953 80.8408196,1.91829425 C81.5540357,2.32421872 82.0758456,2.89843745 82.4062492,3.63411452 C82.7366529,4.37076815 82.8990877,5.24055979 82.8932284,6.24348945 Z M69.2467443,6.31315091 C69.2467443,5.59407541 69.0957027,5.02604157 68.7942704,4.61425772 C68.4928381,4.20247388 68.0286454,3.98795566 67.4026689,3.9824218 L65.489583,3.9824218 L65.489583,21.2369787 L67.4026689,21.2369787 C68.0286454,21.2311193 68.4928381,21.0224604 68.7942704,20.6051427 C69.0957027,20.1933589 69.2467443,19.6308589 69.2467443,18.9062496 L69.2467443,6.31315091 Z M72.2379552,6.24348945 L72.2379552,19.0455725 C72.2441401,20.0481766 72.0817052,20.9182938 71.7513016,21.6546219 C71.4205724,22.3964838 70.8987625,22.9648432 70.1855464,23.3707677 C69.4726558,23.7763666 68.5449214,23.9794916 67.4026689,23.9850255 L62.4977211,23.9850255 L62.4977211,1.30371093 L67.4026689,1.30371093 C68.5449214,1.30957031 69.4726558,1.5126953 70.1855464,1.91829425 C70.8987625,2.32421872 71.4205724,2.89843745 71.7513016,3.63411452 C72.0817052,4.37076815 72.2441401,5.24055979 72.2379552,6.24348945 Z M57.6416014,9.58333312 L55.0677082,9.58333312 L55.9023436,16.4016923 C55.9427082,16.7262366 55.9833983,17.0856116 56.0237629,17.4742834 C56.064453,17.8684892 56.1051431,18.2568355 56.1402993,18.6510412 C56.1748046,19.0397131 56.2037759,19.3990881 56.2327473,19.7239579 C56.2617186,20.054036 56.2792967,20.3147782 56.2965493,20.5120438 C56.3141275,20.7151688 56.3199868,20.8138016 56.3199868,20.8193354 L56.3893228,20.8193354 C56.3893228,20.8138016 56.3951822,20.7151688 56.4124348,20.5179032 C56.4300129,20.3209631 56.4472655,20.0598954 56.4765624,19.7353511 C56.5055337,19.4108068 56.5345051,19.0511063 56.5690103,18.66276 C56.6041665,18.2740881 56.6445311,17.8798824 56.6852212,17.491536 C56.7255858,17.0973303 56.7662759,16.732096 56.806966,16.4016923 L57.6416014,9.58333312 Z M61.7815752,1.30371093 L58.3375649,23.9850255 L54.4065754,23.9850255 L50.9277344,1.30371093 L53.9541015,1.30371093 L54.6848957,7.1132811 L58.0244139,7.1132811 L58.7548826,1.30371093 L61.7815752,1.30371093 Z" transform="matrix(1 0 0 -1 0 25.289)"/>
      <path fill="#999" d="M48.236978,1.26953125 L44.2018218,15.4628903 L48.0283191,23.9508458 L45.001952,23.9508458 C44.6266265,23.1136062 41.2809235,15.2561845 41.1057933,15.2561845 L41.1057933,23.9508458 L38.1136058,23.9508458 L38.1136058,1.26953125 L41.1057933,1.26953125 L41.1057933,10.105794 L42.2535797,12.6796872 L45.2106109,1.26953125 L48.236978,1.26953125 Z M36.7832022,1.26953125 L36.7832022,23.9508458 L34.0351554,23.9508458 L34.0351554,7.93815087 L29.7213534,23.9508458 L26.3818353,23.9508458 L26.3818353,1.26953125 L29.1298821,1.26953125 L29.1298821,17.1533199 L33.4088533,1.26953125 L36.7832022,1.26953125 Z M25.0856114,23.9508458 L22.0937495,23.9508458 L22.0937495,1.26953125 L25.0856114,1.26953125 L25.0856114,23.9508458 Z M20.8652339,1.26953125 L20.8652339,23.9508458 L17.873372,23.9508458 L17.873372,14.4537757 L13.9772132,14.4537757 L13.9772132,23.9508458 L10.9853513,23.9508458 L10.9853513,1.26953125 L13.9772132,1.26953125 L13.9772132,11.7057289 L17.873372,11.7057289 L17.873372,1.26953125 L20.8652339,1.26953125 Z M10.1666664,21.202799 L10.1666664,23.9508458 L0.634765625,23.9508458 L0.634765625,21.202799 L3.90494783,21.202799 L3.90494783,1.26953125 L6.89648422,1.26953125 L6.89648422,21.202799 L10.1666664,21.202799 Z" transform="matrix(1 0 0 -1 0 25.22)"/>
    </g>
    <path fill="#F60" d="M14.9538113,29.8545221 C6.74985318,29.8545221 0.0992283439,23.2038972 0.0992283439,15.0001474 C0.0992283439,6.7961893 6.74985318,0.145564465 14.9538113,0.145564465 C23.1577694,0.145564465 29.8081859,6.7961893 29.8081859,15.0001474 C29.8081859,23.2038972 23.1577694,29.8545221 14.9538113,29.8545221" transform="matrix(1 0 0 -1 0 30)"/>
    <path fill="#FFF" fill-rule="nonzero" d="M17.7709987,7.26422183 L11.5037072,5.26130522 C11.0999572,5.02818022 10.9603739,4.50713857 11.1934989,4.10318025 C11.4266239,3.69943026 11.9474572,3.55984693 12.3514155,3.79297192 L18.6184987,5.79588854 C19.0226654,6.02901353 19.1622487,6.55005519 18.9291237,6.95401351 C18.6957904,7.35755517 18.2670404,7.4652635 17.7709987,7.26422183 Z M9.7545406,22.3925548 C10.0289156,23.1929714 10.4826656,23.9098464 11.0678739,24.4952631 C12.0624572,25.4894297 13.4362072,26.1048464 14.9539155,26.1048464 C16.4714154,26.1048464 17.8451654,25.4894297 18.8395404,24.4952631 C19.4247487,23.9098464 19.878707,23.1929714 20.1532903,22.3925548 L20.2582903,22.3879715 L20.5728737,22.3727631 L20.6795403,22.3656798 C21.0826653,22.3396381 21.4845403,22.2938048 21.8845403,22.2346381 L21.962457,22.2233881 C21.655582,23.5608881 20.9757903,24.7563047 20.0382903,25.6938047 C18.7370404,26.9950547 16.9393321,27.7998463 14.9539155,27.7998463 C12.9682905,27.7998463 11.1705822,26.9950547 9.86933227,25.6938047 C8.93183229,24.7563047 8.25204064,23.5608881 7.94516565,22.2233881 L8.02308231,22.2346381 C8.42287397,22.2938048 8.82495729,22.3396381 9.22829062,22.3656798 L9.34579061,22.3731798 L9.64912394,22.3879715 L9.7545406,22.3925548 Z M12.0903739,19.9029715 C11.7374572,20.0952632 11.2516239,20.2327632 10.7597489,20.2867215 C10.6407906,20.2998465 10.5214156,20.3077632 10.4034989,20.3108882 C9.96495726,20.3213048 9.54641561,20.2579715 9.24037395,20.1000548 C9.00099895,19.9769298 8.83016563,19.7956799 8.77162396,19.5467215 C8.76079063,19.5013049 8.75370729,19.4535965 8.75079063,19.4038049 C8.74745729,19.3519299 8.74766563,19.3052632 8.75120729,19.2644299 C8.77724896,18.9554715 8.98641562,18.9525549 9.32204061,19.0600549 C9.56474894,19.1373465 9.87349893,19.2727632 10.2274573,19.3913049 C10.4095406,19.4523465 10.6034989,19.5088049 10.8059989,19.5513049 C11.1995406,19.6331799 11.6272489,19.6608882 12.0674572,19.5606799 C12.2026655,19.6494299 12.2103739,19.7633882 12.0903739,19.9029715 Z M19.148707,20.2869298 C18.6564154,20.2331798 18.1705821,20.0952632 17.8174571,19.9029715 C17.6972487,19.7633882 17.7047487,19.6494299 17.8399571,19.5606799 C18.2824571,19.6613049 18.7122487,19.6329715 19.1072487,19.5500549 C19.308082,19.5077632 19.499957,19.4517215 19.6801654,19.3913049 C20.0384987,19.2708882 20.3507903,19.1340132 20.594957,19.0567215 C20.925582,18.9525549 21.1309987,18.9585965 21.156207,19.2654715 C21.1597487,19.3063049 21.159957,19.3519299 21.156832,19.4038049 C21.153707,19.4535965 21.146832,19.5004715 21.1364153,19.5456799 C21.0778737,19.7948465 20.9076653,19.9760965 20.668707,20.0994298 C20.3622487,20.2579715 19.943082,20.3213048 19.5039154,20.3108882 C19.3864154,20.3077632 19.267457,20.2998465 19.148707,20.2869298 Z M15.9057904,20.9952632 L15.9057904,18.8242215 L15.9057904,18.8115132 L15.9084988,18.7988049 C16.0007904,18.3390132 16.1324571,17.8919299 16.3443321,17.4723466 C16.7976654,16.5754716 17.5247487,16.0331799 18.3809987,15.760055 C18.4680821,15.7323466 18.5566237,15.707555 18.646207,15.6852633 L18.7359987,15.663805 C19.108082,15.57943 19.4995404,15.5404716 19.8991237,15.540055 L20.0541237,15.5415133 L20.220582,15.54818 L20.3147487,15.5540133 C22.4328736,15.703805 23.4780819,17.0548466 23.5870403,19.1583882 L24.1187069,19.3008882 L24.1187069,21.0671382 L23.8620402,21.1340132 C23.1962069,21.3081798 22.497457,21.4592215 21.7857903,21.5640131 C21.4051653,21.6198465 21.0207903,21.6629715 20.6357903,21.6890131 L20.5291237,21.6958881 L20.2257903,21.7106798 C19.8489154,21.7244298 19.472457,21.7213048 19.0995404,21.6973465 L18.843707,21.6781798 C18.0422487,21.6065131 17.2584987,21.4367215 16.5214154,21.1369298 C16.3237071,21.0558882 16.1166238,21.0123465 15.9057904,20.9952632 Z M17.0924571,19.8608882 C17.4803737,20.4544298 18.3887071,20.6596382 19.156832,20.7117215 L19.361207,20.7223465 C19.5001654,20.7271382 19.632457,20.7273465 19.7528737,20.7246382 C19.974957,20.7194298 20.204332,20.7042215 20.4341237,20.6779715 C20.516832,20.6681798 20.5995403,20.6571382 20.6822487,20.6448465 C20.769957,20.6315132 20.857457,20.6165132 20.944332,20.6000548 C21.1826653,20.5548465 21.416207,20.4965132 21.6378736,20.4240132 C21.7084986,20.4013048 21.811832,20.3646382 21.9234986,20.3173465 C22.1745403,20.2115132 22.467457,20.0517215 22.5305819,19.8679715 C22.5045403,18.3104716 22.274957,17.1110966 20.9297487,16.7354716 C20.866207,16.7175549 20.799957,16.7017216 20.7309987,16.6877633 C20.5614153,16.6531799 20.3759987,16.6298466 20.173082,16.6190133 L20.0284987,16.6135966 C19.7591237,16.6071383 19.4922487,16.6206799 19.234332,16.6602633 L19.1401654,16.6756799 C18.9716237,16.7054716 18.807457,16.7475549 18.649332,16.8027633 C18.1282904,16.9850549 17.6757904,17.3127632 17.3620404,17.8488049 C17.0278738,18.4194299 16.6857904,19.2388049 17.0924571,19.8608882 Z M14.3009988,19.1846382 C14.3009988,18.8254715 14.5947488,18.5319299 14.9539155,18.5319299 C15.3126655,18.5319299 15.6066238,18.8254715 15.6066238,19.1846382 L15.6066238,20.6352632 C15.6066238,20.9940132 15.3126655,21.2877632 14.9539155,21.2877632 C14.5947488,21.2877632 14.3009988,20.9940132 14.3009988,20.6352632 L14.3009988,19.1846382 Z M11.2614156,15.6852633 C11.3891239,15.71693 11.5147489,15.75443 11.6374572,15.7973466 C12.4451655,16.0806799 13.1295405,16.6144299 13.5628738,17.4723466 C13.7749572,17.8919299 13.9066238,18.3390132 13.9991238,18.7988049 L14.0014155,18.8115132 L14.0014155,18.8242215 L14.0014155,20.9952632 C13.7909988,21.0123465 13.5837072,21.0558882 13.3859988,21.1369298 C12.6489155,21.4367215 11.8651655,21.6065131 11.0639156,21.6777631 L10.8080822,21.6971381 C10.4349573,21.7213048 10.0584989,21.7244298 9.68183227,21.7106798 L9.37829061,21.6958881 L9.27204061,21.6890131 C8.88662396,21.6629715 8.50224897,21.6198465 8.12183231,21.5640131 C7.40995733,21.4592215 6.71099901,21.3081798 6.04537403,21.1340132 L5.7889157,21.0671382 L5.7889157,19.3008882 L6.32058236,19.1583882 C6.42974902,17.0548466 7.47454066,15.703805 9.59308227,15.5540133 L9.6870406,15.54818 L9.8532906,15.5415133 C9.9439156,15.5396383 10.0341239,15.53943 10.1241239,15.5410966 C10.4837073,15.5483883 10.8353739,15.5877633 11.1716239,15.663805 L11.2614156,15.6852633 Z M11.3284989,16.8283883 C11.1491239,16.7602633 10.9609989,16.7102633 10.7674572,16.6756799 L10.6730822,16.6602633 C10.4151656,16.6206799 10.1482906,16.6071383 9.87912393,16.6135966 L9.80724893,16.6158883 C9.57599894,16.6246383 9.36641561,16.6488049 9.17641562,16.6875549 C9.10766562,16.7017216 9.04162395,16.7175549 8.97766562,16.7354716 C7.63245732,17.1110966 7.40308233,18.3104716 7.37704066,19.8679715 C7.43974899,20.0517215 7.73308232,20.2115132 7.98412398,20.3173465 C8.09579064,20.3646382 8.19912397,20.4013048 8.26995731,20.4240132 C8.49141563,20.4965132 8.72516563,20.5548465 8.96329062,20.6000548 C9.05016562,20.6165132 9.13787395,20.6315132 9.22516562,20.6448465 C9.30787395,20.6571382 9.39037394,20.6681798 9.47329061,20.6779715 C9.7032906,20.7042215 9.93245726,20.7194298 10.1545406,20.7246382 C10.2751656,20.7273465 10.4074573,20.7271382 10.5464156,20.7223465 L10.7505822,20.7117215 C11.5189156,20.6596382 12.4268322,20.4544298 12.8149572,19.8608882 C13.2216238,19.2388049 12.8795405,18.4194299 12.5455822,17.8488049 C12.2457905,17.3369299 11.8201656,17.0152633 11.3284989,16.8283883 Z M12.2620405,9.54401344 L12.2620405,11.8950551 C12.2620405,13.1033884 11.9630822,14.1185967 11.5539156,15.06068 L11.4187072,15.0258883 L11.3289156,15.0042216 C10.9389156,14.911305 10.5376656,14.871305 10.1374573,14.8633883 C10.0341239,14.861305 9.9307906,14.8602633 9.82745727,14.8640133 L9.77995727,14.8658883 C10.2201656,13.9496383 10.5664156,12.9929717 10.5664156,11.8950551 L10.5664156,9.54401344 C10.5664156,9.07776346 10.9478739,8.69651347 11.4139156,8.69651347 C11.8803739,8.69651347 12.2620405,9.07776346 12.2620405,9.54401344 Z M11.7439156,6.35213852 L18.894957,8.6429718 C19.159957,8.78693013 19.341207,9.06776346 19.341207,9.38880511 L19.341207,11.8950551 C19.341207,12.9929717 19.687457,13.9496383 20.1276653,14.8658883 L20.0709987,14.863805 L19.9072487,14.86193 C19.461207,14.8565133 19.0134987,14.9008883 18.5791237,15.0042216 L18.4895404,15.0254716 L18.3537071,15.06068 C17.9447487,14.1185967 17.6455821,13.1033884 17.6455821,11.8950551 L17.6455821,9.87963844 L10.8959989,7.82047182 C10.4922489,7.58734683 10.3526656,7.06630517 10.5857906,6.66234685 C10.8189156,6.25880519 11.2068322,6.1644302 11.7439156,6.35213852 Z M16.5039154,4.14151358 L13.3705822,3.0996386 C13.6030822,2.65963862 14.0270405,2.32755529 14.5543321,2.23109696 C15.4670405,2.0638053 16.3424571,2.59255528 16.5093321,3.50568026 C16.5491238,3.72276359 16.5451654,3.93734692 16.5039154,4.14151358 Z" transform="matrix(1 0 0 -1 0 30)"/>
  </g>
</svg>
