<svg xmlns="http://www.w3.org/2000/svg" width="191" height="192" viewBox="0 0 191 192">
  <g fill="none" fill-rule="evenodd">
    <path fill="#F60" d="M95.7043924,191.068941 C43.1990603,191.068941 0.635061401,148.504942 0.635061401,96.0009435 C0.635061401,43.4956115 43.1990603,0.931612577 95.7043924,0.931612577 C148.209724,0.931612577 190.77239,43.4956115 190.77239,96.0009435 C190.77239,148.504942 148.209724,191.068941 95.7043924,191.068941" transform="matrix(1 0 0 -1 0 192)"/>
    <path fill="#FFF" fill-rule="nonzero" d="M113.734392,46.4910197 L73.6237262,33.6723534 C71.0397263,32.1803534 70.146393,28.8456868 71.638393,26.2603536 C73.1303929,23.6763536 76.4637262,22.7830203 79.0490594,24.2750203 L119.158392,37.0936866 C121.745058,38.5856866 122.638392,41.9203532 121.146392,44.5056865 C119.653058,47.0883531 116.909058,47.7776864 113.734392,46.4910197 Z M62.4290599,143.312351 C64.1850598,148.435017 67.0890597,153.023017 70.834393,156.769684 C77.1997262,163.13235 85.9917259,167.071017 95.705059,167.071017 C105.417059,167.071017 114.209059,163.13235 120.573058,156.769684 C124.318392,153.023017 127.223725,148.435017 128.981058,143.312351 L129.653058,143.283017 L131.666391,143.185684 L132.349058,143.140351 C134.929058,142.973684 137.501058,142.680351 140.061058,142.301684 L140.559725,142.229684 C138.595725,150.789684 134.245058,158.44035 128.245058,164.44035 C119.917058,172.76835 108.411725,177.919016 95.705059,177.919016 C82.9970593,177.919016 71.4917263,172.76835 63.1637265,164.44035 C57.1637267,158.44035 52.8130601,150.789684 50.8490601,142.229684 L51.3477268,142.301684 C53.9063934,142.680351 56.4797267,142.973684 59.0610599,143.140351 L59.8130599,143.188351 L61.7543932,143.283017 L62.4290599,143.312351 Z M77.3783928,127.379018 C75.1197262,128.609684 72.0103929,129.489684 68.862393,129.835018 C68.1010597,129.919018 67.3370597,129.969684 66.5823931,129.989684 C63.7757265,130.056351 61.0970599,129.651018 59.1383933,128.640351 C57.6063933,127.852351 56.51306,126.692351 56.1383933,125.099018 C56.06906,124.808351 56.0237267,124.503018 56.00506,124.184351 C55.9837267,123.852351 55.98506,123.553684 56.0077267,123.292351 C56.1743933,121.315018 57.51306,121.296351 59.6610599,121.984351 C61.2143932,122.479018 63.1903932,123.345684 65.4557264,124.104351 C66.6210598,124.495018 67.8623931,124.856351 69.158393,125.128351 C71.6770596,125.652351 74.4143929,125.829684 77.2317262,125.188351 C78.0970595,125.756351 78.1463928,126.485684 77.3783928,127.379018 Z M122.551725,129.836351 C119.401058,129.492351 116.291725,128.609684 114.031725,127.379018 C113.262392,126.485684 113.310392,125.756351 114.175725,125.188351 C117.007725,125.832351 119.758392,125.651018 122.286392,125.120351 C123.571725,124.849684 124.799725,124.491018 125.953058,124.104351 C128.246392,123.333684 130.245058,122.457685 131.807725,121.963018 C133.923725,121.296351 135.238391,121.335018 135.399725,123.299018 C135.422391,123.560351 135.423725,123.852351 135.403725,124.184351 C135.383725,124.503018 135.339725,124.803018 135.273058,125.092351 C134.898391,126.687018 133.809058,127.847018 132.279725,128.636351 C130.318391,129.651018 127.635725,130.056351 124.825058,129.989684 C124.073058,129.969684 123.311725,129.919018 122.551725,129.836351 Z M101.797059,134.369684 L101.797059,120.475018 L101.797059,120.393685 L101.814392,120.312351 C102.405059,117.369685 103.247726,114.508351 104.603725,111.823018 C107.505059,106.083018 112.158392,102.612352 117.638392,100.864352 C118.195725,100.687018 118.762392,100.528352 119.335725,100.385685 L119.910392,100.248352 C122.291725,99.7083517 124.797058,99.4590184 127.354392,99.4563517 L128.346392,99.4656851 L129.411725,99.5083517 L130.014391,99.5456851 C143.570391,100.504352 150.259724,109.151018 150.957058,122.613685 L154.359724,123.525684 L154.359724,134.829684 L152.717058,135.257684 C148.455724,136.372351 143.983724,137.339017 139.429058,138.009684 C136.993058,138.367017 134.533058,138.643017 132.069058,138.809684 L131.386391,138.853684 L129.445058,138.948351 C127.033058,139.036351 124.623725,139.016351 122.237058,138.863017 L120.599725,138.740351 C115.470392,138.281684 110.454392,137.195017 105.737059,135.276351 C104.471725,134.757684 103.146392,134.479018 101.797059,134.369684 Z M109.391725,127.109684 C111.874392,130.908351 117.687725,132.221684 122.603725,132.555018 L123.911725,132.623018 C124.801058,132.653684 125.647725,132.655018 126.418392,132.637684 C127.839725,132.604351 129.307725,132.507018 130.778391,132.339018 C131.307725,132.276351 131.837058,132.205684 132.366391,132.127018 C132.927725,132.041684 133.487725,131.945684 134.043725,131.840351 C135.569058,131.551018 137.063725,131.177684 138.482391,130.713684 C138.934391,130.568351 139.595725,130.333684 140.310391,130.031018 C141.917058,129.353684 143.791724,128.331018 144.195724,127.155018 C144.029058,117.187018 142.559725,109.511018 133.950391,107.107018 C133.543725,106.992352 133.119725,106.891018 132.678391,106.801685 C131.593058,106.580352 130.406391,106.431018 129.107725,106.361685 L128.182392,106.327018 C126.458392,106.285685 124.750392,106.372352 123.099725,106.625685 L122.497058,106.724352 C121.418392,106.915018 120.367725,107.184352 119.355725,107.537685 C116.021059,108.704352 113.125059,110.801685 111.117059,114.232351 C108.978392,117.884351 106.789059,123.128351 109.391725,127.109684 Z M91.5263925,122.781684 C91.5263925,120.483018 93.4063924,118.604351 95.705059,118.604351 C98.001059,118.604351 99.8823923,120.483018 99.8823923,122.781684 L99.8823923,132.065684 C99.8823923,134.361684 98.001059,136.241684 95.705059,136.241684 C93.4063924,136.241684 91.5263925,134.361684 91.5263925,132.065684 L91.5263925,122.781684 Z M72.0730596,100.385685 C72.8903929,100.588352 73.6943929,100.828352 74.4797262,101.103018 C79.6490594,102.916352 84.0290593,106.332352 86.8023926,111.823018 C88.1597259,114.508351 89.0023925,117.369685 89.5943925,120.312351 L89.6090592,120.393685 L89.6090592,120.475018 L89.6090592,134.369684 C88.2623925,134.479018 86.9357259,134.757684 85.6703926,135.276351 C80.9530594,137.195017 75.9370595,138.281684 70.8090596,138.737684 L69.1717264,138.861684 C66.7837264,139.016351 64.3743931,139.036351 61.9637265,138.948351 L60.0210599,138.853684 L59.3410599,138.809684 C56.8743933,138.643017 54.4143934,138.367017 51.9797268,138.009684 C47.4237269,137.339017 42.9503937,136.372351 38.6903938,135.257684 L37.0490605,134.829684 L37.0490605,123.525684 L40.4517271,122.613685 C41.1503937,109.151018 47.8370602,100.504352 61.3957265,99.5456851 L61.9970599,99.5083517 L63.0610598,99.4656851 C63.6410598,99.4536851 64.2183931,99.4523517 64.7943931,99.4630184 C67.0957264,99.5096851 69.346393,99.7616851 71.498393,100.248352 L72.0730596,100.385685 Z M72.5023929,107.701685 C71.354393,107.265685 70.150393,106.945685 68.9117264,106.724352 L68.3077264,106.625685 C66.6570598,106.372352 64.9490598,106.285685 63.2263932,106.327018 L62.7663932,106.341685 C61.2863932,106.397685 59.9450599,106.552352 58.7290599,106.800352 C58.28906,106.891018 57.8663933,106.992352 57.45706,107.107018 C48.8477269,109.511018 47.3797269,117.187018 47.2130602,127.155018 C47.6143936,128.331018 49.4917268,129.353684 51.0983935,130.031018 C51.8130601,130.333684 52.4743934,130.568351 52.9277268,130.713684 C54.3450601,131.177684 55.84106,131.551018 57.36506,131.840351 C57.92106,131.945684 58.4823933,132.041684 59.0410599,132.127018 C59.5703933,132.205684 60.0983932,132.276351 60.6290599,132.339018 C62.1010599,132.507018 63.5677265,132.604351 64.9890598,132.637684 C65.7610598,132.655018 66.6077264,132.653684 67.4970597,132.623018 L68.8037264,132.555018 C73.7210596,132.221684 79.5317261,130.908351 82.015726,127.109684 C84.6183926,123.128351 82.4290594,117.884351 80.2917261,114.232351 C78.3730595,110.956351 75.6490595,108.897685 72.5023929,107.701685 Z M78.4770595,61.081686 L78.4770595,76.1283523 C78.4770595,83.8616855 76.5637262,90.3590186 73.9450596,96.3883518 L73.0797263,96.1656852 L72.5050596,96.0270185 C70.0090597,95.4323518 67.4410597,95.1763519 64.8797265,95.1256852 C64.2183931,95.1123519 63.5570598,95.1056852 62.8957265,95.1296852 L62.5917265,95.1416852 C65.4090598,89.2776853 67.6250597,83.1550188 67.6250597,76.1283523 L67.6250597,61.081686 C67.6250597,58.0976861 70.066393,55.6576862 73.0490596,55.6576862 C76.0343928,55.6576862 78.4770595,58.0976861 78.4770595,61.081686 Z M75.1610595,40.6536866 L120.927725,55.3150195 C122.623725,56.2363528 123.783725,58.0336861 123.783725,60.0883527 L123.783725,76.1283523 C123.783725,83.1550188 125.999725,89.2776853 128.817058,95.1416852 L128.454392,95.1283519 L127.406392,95.1163519 C124.551725,95.0816852 121.686392,95.3656852 118.906392,96.0270185 L118.333058,96.1630185 L117.463725,96.3883518 C114.846392,90.3590186 112.931725,83.8616855 112.931725,76.1283523 L112.931725,63.229686 L69.734393,50.0510196 C67.1503931,48.5590197 66.2570598,45.2243531 67.7490597,42.6390198 C69.2410597,40.0563532 71.7237263,39.4523532 75.1610595,40.6536866 Z M105.625059,26.5056869 L85.5717259,19.8376871 C87.0597259,17.0216871 89.7730592,14.8963539 93.1477258,14.2790205 C98.9890589,13.2083539 104.591725,16.5923538 105.659725,22.4363537 C105.914392,23.825687 105.889059,25.1990203 105.625059,26.5056869 Z" transform="matrix(1 0 0 -1 0 192.001)"/>
  </g>
</svg>
