<?xml version="1.0" standalone="no"?>
<!DOCTYPE svg PUBLIC "-//W3C//DTD SVG 20010904//EN"
 "http://www.w3.org/TR/2001/REC-SVG-20010904/DTD/svg10.dtd">
<svg version="1.0" xmlns="http://www.w3.org/2000/svg"
 width="768.000000pt" height="768.000000pt" viewBox="0 0 768.000000 768.000000"
 preserveAspectRatio="xMidYMid meet">
<metadata>
Created by potrace 1.11, written by Peter Selinger 2001-2013
</metadata>
<g transform="translate(0.000000,768.000000) scale(0.100000,-0.100000)"
fill="#000000" stroke="none">
<path d="M3525 7634 c-1254 -112 -2339 -804 -2980 -1899 -248 -423 -409 -914
-481 -1465 -25 -191 -25 -669 0 -860 60 -464 168 -836 354 -1223 497 -1034
1459 -1803 2574 -2057 626 -143 1253 -129 1874 41 1009 277 1877 981 2361
1914 287 556 426 1128 426 1755 0 235 -10 377 -44 595 -202 1285 -1053 2381
-2256 2904 -556 242 -1223 349 -1828 295z m547 -538 c299 -38 588 -149 840
-326 121 -84 344 -307 428 -428 131 -187 246 -434 285 -609 8 -39 20 -37 -145
-19 -69 8 -164 18 -211 21 l-86 7 -31 77 c-125 303 -379 574 -677 720 -215
105 -381 143 -625 143 -186 0 -302 -18 -462 -72 -355 -121 -670 -407 -824
-747 -24 -54 -44 -104 -44 -110 0 -7 -11 -13 -23 -13 -27 0 -319 -27 -389 -36
l-46 -6 23 83 c106 375 341 718 661 961 197 151 480 280 719 329 192 39 417
48 607 25z m-1157 -1561 c185 -22 278 -43 495 -116 63 -20 132 -40 153 -44
l37 -6 0 -277 c0 -239 -3 -287 -19 -352 -79 -313 -224 -512 -461 -634 -299
-154 -742 -162 -1028 -17 -250 126 -391 355 -437 709 -8 58 -19 108 -25 112
-7 4 -36 13 -66 20 l-54 13 0 223 0 223 38 10 c248 65 531 118 752 140 141 14
484 12 615 -4z m2506 0 c220 -23 538 -83 747 -141 l22 -6 -2 -221 -3 -221 -66
-19 -65 -19 -12 -101 c-20 -180 -73 -344 -149 -459 -45 -69 -142 -169 -201
-210 -303 -208 -875 -202 -1194 12 -188 127 -304 302 -378 570 -18 67 -20 103
-20 362 l0 287 38 6 c20 4 96 26 167 50 196 66 278 85 465 110 137 18 481 18
651 0z m-1491 -117 c74 -51 75 -53 78 -311 2 -226 2 -233 -21 -272 -32 -56
-89 -87 -150 -82 -54 5 -91 27 -125 78 -23 33 -23 37 -20 274 3 229 4 241 25
271 46 64 150 85 213 42z m-941 -1600 c80 -202 133 -401 150 -560 6 -54 11
-270 11 -480 0 -351 -2 -386 -19 -424 -68 -150 -284 -159 -369 -16 l-27 47 -6
420 c-6 456 -9 482 -70 680 -17 55 -52 148 -79 206 l-47 106 131 6 c104 5 213
21 306 46 3 0 11 -14 19 -31z m1841 6 c41 -8 133 -17 203 -21 88 -4 127 -9
123 -17 -175 -405 -186 -467 -193 -1031 -5 -448 -5 -444 -66 -503 -34 -32 -35
-32 -577 -206 -129 -41 -424 -135 -655 -210 -758 -243 -759 -243 -832 -215
-102 38 -153 181 -102 286 32 66 68 86 249 141 199 60 762 232 1105 337 138
43 295 91 351 107 l101 31 6 356 c6 384 11 436 68 651 17 63 49 161 71 218 33
84 43 102 57 97 9 -4 50 -13 91 -21z m-65 -1963 c128 -58 163 -230 67 -330
-42 -43 67 -6 -1162 -398 -129 -41 -309 -99 -398 -129 -90 -30 -182 -54 -203
-54 -114 0 -203 93 -203 210 1 63 29 127 70 159 14 11 119 50 233 86 113 37
267 86 341 110 74 24 234 75 355 114 121 38 346 110 500 160 158 51 297 90
320 90 22 0 58 -8 80 -18z m-521 -827 c22 -57 -13 -207 -68 -289 -150 -226
-518 -232 -686 -12 -21 28 -37 53 -35 56 4 4 764 259 776 260 4 1 10 -6 13
-15z"/>
<path d="M2440 5299 c-202 -21 -455 -110 -513 -179 -28 -33 -29 -35 -22 -129
16 -230 51 -387 111 -488 40 -69 124 -147 196 -182 114 -56 173 -66 373 -66
156 1 191 4 258 23 201 57 335 168 426 352 65 133 85 211 79 310 -6 90 -28
138 -93 202 -137 135 -447 195 -815 157z m480 -138 c96 -25 189 -67 204 -93
18 -30 -5 -54 -45 -48 -19 3 -83 4 -144 4 -127 -2 -198 -18 -408 -94 -221 -81
-257 -78 -257 21 0 92 42 151 137 195 79 35 135 43 288 40 104 -2 162 -9 225
-25z"/>
<path d="M4845 5301 c-238 -30 -419 -127 -475 -254 -58 -130 -16 -321 115
-517 99 -149 264 -243 474 -271 107 -14 325 -6 403 15 279 76 405 280 424 684
l7 141 -33 31 c-66 62 -200 114 -388 150 -117 23 -416 35 -527 21z m410 -140
c32 -11 75 -34 95 -49 97 -77 109 -242 17 -242 -18 0 -70 14 -117 31 -201 73
-260 91 -349 109 -98 21 -211 25 -273 11 -42 -10 -58 0 -58 36 0 28 59 60 170
93 111 33 161 39 315 36 113 -2 151 -7 200 -25z"/>
</g>
</svg>
